<svg width="12" height="16" viewBox="0 0 12 16" fill="none" xmlns="http://www.w3.org/2000/svg">
<path d="M4.38635 10.6624C5.4661 10.5753 6.55082 10.5753 7.63057 10.6624C8.21855 10.6966 8.80375 10.7702 9.38245 10.8826C10.6347 11.1361 11.4523 11.5498 11.8026 12.2171C12.0658 12.7378 12.0658 13.3578 11.8026 13.8786C11.4523 14.5458 10.6672 14.9862 9.36947 15.2131C8.79122 15.3297 8.2059 15.4055 7.61759 15.4399C7.07256 15.5 6.52753 15.5 5.97602 15.5H4.98328C4.77565 15.4733 4.57451 15.46 4.37986 15.46C3.79153 15.4297 3.20607 15.3561 2.62798 15.2398C1.37571 14.9996 0.558167 14.5725 0.207791 13.9052C0.0725334 13.6468 0.00122556 13.358 7.81634e-05 13.0645C-0.00265823 12.7692 0.0664931 12.4778 0.201303 12.2171C0.54519 11.5498 1.36273 11.1161 2.62798 10.8826C3.20862 10.7686 3.79608 10.695 4.38635 10.6624ZM6.00197 0.5C8.17713 0.5 9.94045 2.31337 9.94045 4.55027C9.94045 6.78717 8.17713 8.60053 6.00197 8.60053C3.8268 8.60053 2.06349 6.78717 2.06349 4.55027C2.06349 2.31337 3.8268 0.5 6.00197 0.5Z" fill="#383838"/>
</svg>
